<svg xmlns="http://www.w3.org/2000/svg" enable-background="new 0 0 64 64" viewBox="0 0 64 64" id="employeewages"><rect width="3.404" height="6.941" x="4" y="38.698" fill="#04626d" class="color57585b svgShape"></rect><path fill="#04626d" d="M30.4845848 39.260643l-12.1223755 7.0731392-.505125.2427254c-.318409.1544991-.6807823.2096596-1.0431557.1434555l-7.6314154-1.0372467v-7.3158646c.7137556-.2978859 2.3498297-.8165436 4.6117964-.4082718.5161152.0993385 1.0651369.242794 1.7019539.4744759.7467289.2758598 2.4486828.7172661 5.6220455.739357.2086296.0772514.4831409.2978859.3732967 1.0261993-.0658798.3531113-.6258926.606884-1.1309509.6509972l-5.1389017.4965668c-.4501686.044178-.7795677.4524498-.7356701.9048347.0439644.4524498.4502354.7834702.8894119.7392921l5.138835-.4855194c1.1529999-.110321 2.3937283-.7944527 2.6023579-2.0523987.0658798-.4413414.0549564-.8275871-.0219135-1.1696548l1.53722-1.103447c.1427517-.0772476.3513813-.0992737.5380974.2096596.2635193.4193153.8015499.562767 1.2298031.3310204l.9881992-.5406799c.1647339-.0330696.4611588-.0441132.5710049.2096596.1097775.2537689.3293991.4524498.6039104.5296326 0 0 .3457203.109581.4611588.088295.1170082-.0215759 1.0980434-.8054962 1.0980434-.8054962.1189651-.0425491.4282532-.0662041.5600128.1654778C30.7590961 38.4993248 30.9897099 38.9185753 30.4845848 39.260643zM18.9441357 18.8689384c-3.9639196 0-7.1921711 3.2662315-7.1921711 7.2827988 0 4.0165005 3.2282515 7.2937775 7.1921711 7.2937775s7.192173-3.277277 7.192173-7.2937775C26.1363087 22.13517 22.9080582 18.8689384 18.9441357 18.8689384zM19.0100174 25.324152c1.712944.1324081 2.9208317 1.2468338 2.9208317 2.7254848 0 1.2469006-.9223862 2.2841454-2.1631794 2.6151657v.5186558c0 .4634304-.3623066.8275852-.823534.8275852-.4501667 0-.8235321-.3641548-.8235321-.8275852v-.4965649c-1.2737007-.2979527-2.1631136-1.257946-2.1631136-2.4717121 0-.4634972.3732977-.8275871.8235331-.8275871.4501686 0 .8235321.36409.8235321.8275871 0 .5958366.6588001.9048347 1.3285904.9158134l.0109901-.0109787.0109921.0109787c.7356701-.0109787 1.3286572-.4855213 1.3286572-1.081358 0-.6730881-.7027645-1.0261993-1.394537-1.0703125-1.7019539-.1324768-2.9317579-1.2800388-2.9317579-2.7255535 0-1.2469006.9223204-2.2841454 2.1631136-2.6151657v-.518589c0-.4524517.3733654-.8275852.8235321-.8275852.4612274 0 .823534.3751335.823534.8275852v.5075436c1.2737675.2979527 2.1631794 1.2800369 2.1631794 2.5158939 0 .4523849-.3733635.8275871-.8235321.8275871-.4502354 0-.8235321-.3752022-.8235321-.8275871 0-.628973-.6917725-.9710407-1.3396492-.9710407-.7356701 0-1.3395805.4855213-1.3395805 1.081358C17.6045551 24.8827457 18.3073196 25.2689247 19.0100174 25.324152zM48.1740494 39.911705V48H37.9952316v-7.1724129c0-2.648304 1.1858406-5.0538139 3.1184082-6.8193016L48.1740494 39.911705zM55.5419464 32.9710388l-6.5443649 5.4730606-6.5442963-5.4730606c1.8337135-1.2027874 4.0956802-1.9310341 6.5442963-1.9310341C51.4462662 31.0400047 53.7082329 31.7682514 55.5419464 32.9710388zM60 40.8275871V48H49.8211136v-8.088295l7.0494881-5.9034195C58.8031044 35.7737732 60 38.1792831 60 40.8275871zM54.1913757 21.2192879c0 2.8799839-2.3278503 5.2303352-5.1937943 5.2303352-2.8658752 0-5.1937218-2.3503513-5.1937218-5.2303352S46.1317062 16 48.9975815 16C51.8635254 16 54.1913757 18.3393059 54.1913757 21.2192879z" class="color57585b svgShape"></path></svg>