<?xml version="1.0" encoding="utf-8"?>
<!-- Generator: Adobe Illustrator 25.0.0, SVG Export Plug-In . SVG Version: 6.00 Build 0)  -->
<svg version="1.1" id="Layer_1" xmlns="http://www.w3.org/2000/svg" xmlns:xlink="http://www.w3.org/1999/xlink" x="0px" y="0px"
	 viewBox="0 0 45 45" style="enable-background:new 0 0 45 45;" xml:space="preserve">
<style type="text/css">
	.st0{fill:url(#SVGID_1_);}
	.st1{fill:url(#SVGID_2_);}
	.st2{fill:url(#SVGID_3_);}
	.st3{fill:#043335;}
	.st4{font-family:'TimesNewRomanPSMT';}
	.st5{font-size:4.9977px;}
	.st6{fill:#033335;}
	.st7{font-size:4.0975px;}
</style>
<g>
	<g>
		<linearGradient id="SVGID_1_" gradientUnits="userSpaceOnUse" x1="16.5225" y1="28.1001" x2="22.1536" y2="28.1001">
			<stop  offset="0.484" style="stop-color:#084655"/>
			<stop  offset="0.916" style="stop-color:#37936A"/>
		</linearGradient>
		<path class="st0" d="M22.2,27.2c0,0-2.7,2.2-5.6,0.1C16.5,27.3,19,31.2,22.2,27.2z"/>
		<g>
			<linearGradient id="SVGID_2_" gradientUnits="userSpaceOnUse" x1="20.8188" y1="27.6254" x2="22.6886" y2="27.6254">
				<stop  offset="0.484" style="stop-color:#084655"/>
				<stop  offset="0.916" style="stop-color:#37936A"/>
			</linearGradient>
			<path class="st1" d="M20.8,27.2l1.9-0.5l-0.6,1.8l0,0c-0.2-0.2-0.2-0.4-0.1-0.6l0.2-0.7l-0.7,0.2C21.2,27.4,21,27.4,20.8,27.2
				L20.8,27.2z"/>
		</g>
		<g>
			<linearGradient id="SVGID_3_" gradientUnits="userSpaceOnUse" x1="19.9888" y1="36.7354" x2="19.4545" y2="20.8455">
				<stop  offset="0.484" style="stop-color:#084655"/>
				<stop  offset="0.916" style="stop-color:#37936A"/>
			</linearGradient>
			<path class="st2" d="M11.8,30.4l8-14.6l7.9,14.6h0c-2,0-3.9-1.1-4.8-2.9l-3.1-5.7l-3.1,5.7C15.7,29.3,13.8,30.4,11.8,30.4
				L11.8,30.4z"/>
		</g>
	</g>
	<text transform="matrix(1 0 0 1 1.7734 29.5137)" class="st3 st4 st5">TAR</text>
	<text transform="matrix(1.0141 0 0 1 27.7246 29.29)" class="st6 st4 st7">TALENT</text>
</g>
</svg>
