<?xml version="1.0" encoding="utf-8"?>
<!-- Generator: Adobe Illustrator 25.0.0, SVG Export Plug-In . SVG Version: 6.00 Build 0)  -->
<svg version="1.1" id="Layer_1" xmlns="http://www.w3.org/2000/svg" xmlns:xlink="http://www.w3.org/1999/xlink" x="0px" y="0px"
	 viewBox="0 0 800 800" style="enable-background:new 0 0 800 800;" xml:space="preserve">
<style type="text/css">
	.st0{fill:url(#SVGID_1_);}
</style>
<linearGradient id="SVGID_1_" gradientUnits="userSpaceOnUse" x1="6.25" y1="400" x2="793.75" y2="400">
	<stop  offset="0" style="stop-color:#37939B"/>
	<stop  offset="0.4011" style="stop-color:#046269"/>
</linearGradient>
<path class="st0" d="M793.8,486.2v291.7H167.3v-99.7h201.8v-89.8H559V486.2H793.8z M353.7,74.6c0,29,23.5,52.5,52.5,52.5
	c29,0,52.5-23.5,52.5-52.5s-23.5-52.5-52.5-52.5C377.2,22.1,353.7,45.6,353.7,74.6z M593.5,328.7c-5.1,11.7-19,16.4-30.7,11.1
	l-97.4-45.9c-5.7-2.5-10.4-7.6-12.3-13.6l-16.5-46.5l-22.8,113.9l76.9,1.6c16.5,0.3,29.4,14.2,29.1,30.7l-4.1,159.4
	c-0.3,16.5-13.9,29.4-30.1,29.4c0,0-0.3,0-0.6,0c-16.8-0.3-29.7-14.2-29.4-30.7l3.5-129.6l-95.8-2.2L341,515.9
	c-1,4.4-2.8,9.2-5.4,13l-81.9,117.9c-10.4,15.2-30.7,18.3-45.9,7.9c-14.9-10.4-18.4-30.7-7.6-45.6l77.8-110.9l49.9-282.7l-99.2,91.6
	c-1.7,1.6-3.7,2.9-5.7,3.8l9.3,9.3l-27.1,27.1l45.2,45.2l-36.2,36.2L69.5,284.1l36.2-36.2l45.2,45.2l27.1-27.1l15.1,15.1
	c1.2-2.5,2.8-4.8,4.9-6.8l124.3-118c16.4-14.1,42.7-22.6,65.5-18.8l21.5,4.1c28.8,5.1,50.9,24.7,60.1,50.3l23.4,64.2l88.9,41.8
	C593.5,303,598.5,317,593.5,328.7z M209.7,320.3L178,288.7l-15.8,15.8l31.6,31.6L209.7,320.3z M178,410.7l-9,9l-18.1-18.1l9-9
	l-54.2-54.3l-9,9l-18.1-18.1l9-9l-27.1-27.1L6.2,347.4l144.7,144.7l54.2-54.2L178,410.7z"/>
</svg>
