<?xml version="1.0" encoding="utf-8"?>
<!-- Generator: Adobe Illustrator 25.0.0, SVG Export Plug-In . SVG Version: 6.00 Build 0)  -->
<svg version="1.1" id="Layer_1" xmlns="http://www.w3.org/2000/svg" xmlns:xlink="http://www.w3.org/1999/xlink" x="0px" y="0px"
	 viewBox="0 0 128 160" style="enable-background:new 0 0 128 160;" xml:space="preserve">
<style type="text/css">
	.st0{fill:url(#SVGID_1_);}
	.st1{fill:url(#SVGID_2_);}
	.st2{fill:url(#SVGID_3_);}
	.st3{fill:url(#SVGID_4_);}
</style>
<g>
	<linearGradient id="SVGID_1_" gradientUnits="userSpaceOnUse" x1="8" y1="120" x2="120" y2="120">
		<stop  offset="0" style="stop-color:#37939B"/>
		<stop  offset="0.343" style="stop-color:#09626D"/>
	</linearGradient>
	<path class="st0" d="M8,139c0,1.1,0.9,2,2,2h108c1.1,0,2-0.9,2-2V99H8V139z"/>
	<linearGradient id="SVGID_2_" gradientUnits="userSpaceOnUse" x1="-1.954604e-07" y1="54" x2="90.4468" y2="54">
		<stop  offset="0" style="stop-color:#37939B"/>
		<stop  offset="0.6246" style="stop-color:#09626D"/>
	</linearGradient>
	<path class="st1" d="M124,83h-14c2-1.6,3.1-4.1,2.8-6.6c-0.5-4-4.1-6.9-8.1-6.4c-0.2,0-0.4,0.1-0.7,0.1l-8.4,1.8
		c-1.6-1.1-3.7-1.5-5.6-1.1l-4.5,0.9l-0.8-19l2.9-0.5c2.2-0.3,3.7-2.4,3.3-4.5c0,0,0,0,0,0l-0.6-3.8c-0.2-1.1-0.8-2-1.7-2.7L84.1,38
		l-0.6-15.5c-0.2-5.3-4.6-9.5-9.9-9.5c-0.5,0-1,0-1.5,0.1l-35.6,5.5c-2.8,0.4-5.2,2-6.8,4.4c-1.5,2.4-2,5.3-1.3,8l4.2,15.8l-2.7,3.6
		c-0.7,0.9-1,2-0.8,3l0.6,3.8c0.2,1.1,0.7,2,1.6,2.6c0.7,0.5,1.5,0.8,2.4,0.8c0.2,0,0.4,0,0.6,0l2-0.3L42.2,83H4c-2.2,0-4,1.8-4,4
		c0,0,0,0,0,0v4c0,2.2,1.8,4,4,4c0,0,0,0,0,0h120c2.2,0,4-1.8,4-4c0,0,0,0,0,0v-4C128,84.8,126.2,83,124,83C124,83,124,83,124,83z
		 M32.2,30c-0.9-3.2,1-6.4,4.2-7.3c0.2-0.1,0.4-0.1,0.6-0.1l35.6-5.5c0.3,0,0.6-0.1,0.9-0.1c3.2,0,5.8,2.5,5.9,5.7L80,35.1l-9.6-6.7
		c-3.6-6.8-12.1-9.4-18.9-5.8c-1.9,1-3.5,2.4-4.7,4.1c-1,1.4-1.8,3-2.2,4.7c-0.1,0.1-0.2,0.1-0.2,0.2l-8.6,11.2L32.2,30z M70.3,43
		l-0.9,0.1c0.1-0.2,0.2-0.4,0.3-0.5L70.3,43z M49.6,46.2L48,46.4l0.7-1C49,45.7,49.3,46,49.6,46.2z M46.4,83l-6.2-23.3l4.8-0.7
		L50.5,83H46.4z M92,81.2L79.5,83H54.6L48,54.4l-14.4,2.2L33,52.8l11.3-14.8c0.3,1.5,0.9,3,1.7,4.3l-7.3,9.6L57.7,49
		c0.1,0,0.2,0,0.3,0c0.7,0,1.4-0.1,2.1-0.2c0.8-0.1,1.6-0.3,2.4-0.6l18.1-2.8l-9.2-6.5c0.4-1.5,0.6-3,0.6-4.5l14.4,10.1l0.6,3.8
		l-14.4,2.2l1.7,23.5l-5.8,1.2c-1.1,0.2-1.8,1.3-1.5,2.4c0.2,1.1,1.3,1.8,2.4,1.5l21.5-4.6c1.8-0.4,3.5,0.8,3.9,2.6
		c0.4,1.8-0.8,3.5-2.6,3.9C92.1,81.2,92.1,81.2,92,81.2z M81.5,72.6l-3.3,0.7L76.9,54l3.9-0.6L81.5,72.6z M106,80.5l-8.2,1.2
		c0.9-1.4,1.2-3,1-4.7c-0.1-0.6-0.2-1.1-0.4-1.7l6.5-1.4c1.8-0.4,3.5,0.8,3.9,2.6c0.4,1.8-0.8,3.5-2.6,3.9
		C106.2,80.5,106.1,80.5,106,80.5z"/>
	<linearGradient id="SVGID_3_" gradientUnits="userSpaceOnUse" x1="5.9973" y1="61.9305" x2="18.5856" y2="61.9305">
		<stop  offset="0" style="stop-color:#37939B"/>
		<stop  offset="0.6246" style="stop-color:#09626D"/>
	</linearGradient>
	<path class="st2" d="M20.7,66.2c0.4,2.1-0.9,3.4-4,4c-2.2,0.4-4.4-0.2-6.1-1.5c-0.5-0.4-1.1-0.6-1.6-0.5c-1,0.2-1.7,1.2-1.4,2.2
		c0.1,0.3,0.2,0.6,0.5,0.9c2.1,2,5,3,7.9,2.7l0.4,1.9c0.2,0.9,1,1.5,1.9,1.3s1.5-1,1.3-1.9c0,0,0,0,0,0l-0.4-1.9
		c4.5-1.3,6.4-4.3,5.6-8C23,56.9,11,61.5,10.1,57c-0.3-1.4,0.5-2.9,3.4-3.5c1.8-0.4,3.6-0.1,5.1,0.9c0.5,0.4,1,0.5,1.6,0.5
		c1-0.2,1.7-1.2,1.5-2.2c-0.1-0.4-0.3-0.7-0.6-1c-1.5-1.4-4-2.1-6.7-1.9l-0.4-2c-0.2-0.9-1-1.5-1.9-1.3c-0.9,0.2-1.5,1-1.3,1.9
		c0,0,0,0,0,0l0.4,1.9c-4.3,1.3-5.7,4.3-5.1,7.4C7.8,66,19.8,61.3,20.7,66.2z"/>
	<linearGradient id="SVGID_4_" gradientUnits="userSpaceOnUse" x1="98.0255" y1="46.5195" x2="117.7994" y2="46.5195">
		<stop  offset="0" style="stop-color:#37939B"/>
		<stop  offset="0.6246" style="stop-color:#09626D"/>
	</linearGradient>
	<path class="st3" d="M104.5,58.1l-0.4,1.9c-0.2,0.9,0.4,1.7,1.3,1.9s1.7-0.4,1.9-1.3c0,0,0,0,0,0l0.4-1.9c4.7,0.4,7.5-1.6,8.2-5.4
		c1.6-8.5-11.3-8.8-10.5-13.2c0.3-1.4,1.6-2.5,4.4-2c1.8,0.3,3.4,1.3,4.5,2.7c0.3,0.5,0.8,0.9,1.3,1c1,0.2,2-0.5,2.2-1.5
		c0.1-0.4,0-0.8-0.1-1.2c-0.9-1.9-2.9-3.4-5.6-4.2l0.4-2c0.2-0.9-0.4-1.7-1.3-1.9c-0.9-0.2-1.7,0.4-1.9,1.3c0,0,0,0,0,0l-0.4,1.9
		c-4.5-0.3-6.9,1.9-7.4,5c-1.5,8.2,11.4,8.3,10.5,13.2c-0.4,2.1-2.1,2.9-5.2,2.3c-2.1-0.5-4-1.8-5.1-3.6c-0.3-0.5-0.8-0.9-1.4-1
		c-1-0.2-2,0.5-2.2,1.5c-0.1,0.3,0,0.7,0.1,1C99.4,55.4,101.7,57.3,104.5,58.1z"/>
</g>
</svg>
