<?xml version="1.0" encoding="utf-8"?>
<!-- Generator: Adobe Illustrator 25.0.0, SVG Export Plug-In . SVG Version: 6.00 Build 0)  -->
<svg version="1.1" id="Layer_1" xmlns="http://www.w3.org/2000/svg" xmlns:xlink="http://www.w3.org/1999/xlink" x="0px" y="0px"
	 viewBox="0 0 100 125" style="enable-background:new 0 0 100 125;" xml:space="preserve">
<style type="text/css">
	.st0{fill-rule:evenodd;clip-rule:evenodd;fill:url(#SVGID_1_);}
</style>
<linearGradient id="SVGID_1_" gradientUnits="userSpaceOnUse" x1="6.5332" y1="60" x2="93.4669" y2="60">
	<stop  offset="0" style="stop-color:#37939B"/>
	<stop  offset="0.4413" style="stop-color:#04626D"/>
</linearGradient>
<path class="st0" d="M30.4,95.5l6.7-2.2l31.4,2.8l24-20.2c3.9-7.6-4.4-7-6.9-4.9l-15.2,9c0,0.1-0.1,0.2-0.1,0.4
	c-0.7,1.6-2.2,2.7-3.7,3.7c-0.2,0.2-0.5,0.3-0.8,0.2l-14.3-1.2c-0.7-0.1-1.2-0.6-1.1-1.3s0.6-1.2,1.3-1.1L65.5,82
	c1.1-0.7,2.1-1.5,2.5-2.4c0.4-0.9,0-2.1-1.7-3.8c-0.4-0.4-12-1.2-13.6-1.3l-4.9-2.6L33.1,71l-12.3,8L30.4,95.5L30.4,95.5L30.4,95.5z
	 M16.9,77l12.3,21.3l-10.3,6L6.5,82.9L16.9,77L16.9,77z M57,51.9h7.2V15.7H73v36.2h7.2L68.6,62.2L57,51.9L57,51.9L57,51.9z
	 M44.8,15.7c-13.8,0-24.9,11.2-24.9,24.9S31,65.6,44.8,65.6c6.4,0,12.3-2.4,16.7-6.4l-10.1-8.9c-0.4,0.7-0.8,1.4-1.4,1.9
	C49,53.3,47.6,54,46,54.3v1.4c0,0.7-0.5,1.2-1.2,1.2s-1.2-0.5-1.2-1.2v-1.4c-1.6-0.3-3-1-4.1-2.1c-1.3-1.3-2.2-3.2-2.2-5.3
	c0-0.7,0.5-1.2,1.2-1.2s1.2,0.5,1.2,1.2c0,1.4,0.6,2.6,1.5,3.6c0.6,0.6,1.4,1.1,2.4,1.3v-10c-1.6-0.3-3-1-4.1-2.1
	c-1.3-1.3-2.2-3.2-2.2-5.3s0.8-3.9,2.2-5.3c1.1-1.1,2.5-1.8,4.1-2.1v-1.4c0-0.7,0.5-1.2,1.2-1.2s1.2,0.5,1.2,1.2v1.4
	c1.6,0.3,3,1,4.1,2.1c1.3,1.3,2.2,3.2,2.2,5.3c0,0.7-0.5,1.2-1.2,1.2s-1.2-0.5-1.2-1.2c0-1.4-0.6-2.6-1.5-3.6
	c-0.6-0.6-1.4-1.1-2.4-1.3v10c1.6,0.3,3,1,4.1,2.1c1.3,1.3,2.2,3.2,2.2,5.3c0,0.9-0.2,1.8-0.5,2.6h9.9V22.4
	C57.3,18.2,51.3,15.7,44.8,15.7L44.8,15.7L44.8,15.7z M41.2,38c-0.9-0.9-1.5-2.2-1.5-3.6s0.6-2.6,1.5-3.6c0.6-0.6,1.4-1.1,2.4-1.3
	v9.8C42.7,39.1,41.9,38.6,41.2,38C41.2,38,41.2,38,41.2,38z M46,42c0.9,0.2,1.7,0.7,2.4,1.3c0.9,0.9,1.5,2.2,1.5,3.6
	s-0.6,2.6-1.5,3.6c-0.6,0.6-1.4,1.1-2.4,1.3V42L46,42z"/>
</svg>
