<?xml version="1.0" encoding="utf-8"?>
<!-- Generator: Adobe Illustrator 25.0.0, SVG Export Plug-In . SVG Version: 6.00 Build 0)  -->
<svg version="1.1" id="Layer_1" xmlns="http://www.w3.org/2000/svg" xmlns:xlink="http://www.w3.org/1999/xlink" x="0px" y="0px"
	 viewBox="0 0 100 125" style="enable-background:new 0 0 100 125;" xml:space="preserve">
<style type="text/css">
	.st0{fill-rule:evenodd;clip-rule:evenodd;fill:url(#SVGID_1_);}
</style>
<linearGradient id="SVGID_1_" gradientUnits="userSpaceOnUse" x1="9.954" y1="50" x2="90.0478" y2="50">
	<stop  offset="0" style="stop-color:#37939B"/>
	<stop  offset="0.436" style="stop-color:#046269"/>
</linearGradient>
<path class="st0" d="M80.1,52.8c-4.7-4.7-12.4-4.7-17.2,0s-4.7,12.4,0,17.2s12.4,4.7,17.2,0c0,0,0,0,0,0
	C84.9,65.3,84.9,57.6,80.1,52.8z M74.1,43.4c2.4,1.9,3.1,2.2,6.2,2c2.9-0.1,3.1,0,3.8,2.8c0.8,2.9,1.2,3.6,3.8,5.2
	c2.5,1.6,2.6,1.8,1.5,4.6c-1.1,3-1.1,3.8,0,6.8c1,2.8,1,3-1.5,4.6c-2.6,1.6-3.1,2.3-3.8,5.2c-0.7,2.8-0.9,2.9-3.8,2.8
	c-3-0.2-3.8,0.1-6.2,2c-2.4,1.9-2.8,1.9-5.2,0c-2.4-1.9-3.1-2.2-6.2-2c-2.9,0.1-3.1,0-3.8-2.8c-0.8-2.9-1.2-3.6-3.8-5.2
	c-2.5-1.6-2.6-1.8-1.5-4.6c1.1-3,1.1-3.8,0-6.8c-1-2.8-1-3,1.5-4.6c2.6-1.6,3-2.3,3.8-5.2c0.7-2.8,0.9-2.9,3.8-2.8
	c3,0.2,3.8-0.1,6.2-2C71.3,41.5,71.7,41.5,74.1,43.4L74.1,43.4z M73.2,83.2L73,83.9L77.4,95l2.7-5.3l0,0c0.3-0.6,1-0.9,1.6-0.7
	l5.6,2L82.9,80c-1.7,0.3-4-0.2-5.1,0.2C76.6,80.6,75,82.4,73.2,83.2z M60.1,80l-4.4,11.1l5.6-2c0.6-0.2,1.3,0.1,1.7,0.7l0,0l2.7,5.3
	l4.6-11.6c-2-0.6-3.7-2.7-5-3.2C64.1,79.8,61.9,80.3,60.1,80L60.1,80z M72.6,58.4c0.2,0.4,0.6,0.7,1.1,0.8l0,0l2.6,0.3l-1.9,1.8
	c-0.3,0.3-0.5,0.8-0.4,1.2l0,0l0.5,2.6l-2.3-1.3c-0.4-0.2-0.9-0.2-1.3,0l-2.3,1.2l0.5-2.6c0.1-0.5-0.1-1-0.4-1.3l-1.9-1.7l2.6-0.3
	c0.5-0.1,0.9-0.4,1.1-0.9l1.1-2.3L72.6,58.4L72.6,58.4z M72.7,52.4l2,4.3l4.7,0.6c0.7,0.1,1.3,0.8,1.2,1.5c0,0.3-0.2,0.7-0.5,0.9
	l-3.4,3.2l0.9,4.6c0.1,0.7-0.3,1.4-1.1,1.6c-0.3,0.1-0.6,0-0.9-0.1l-4.1-2.3l-4.1,2.3c-0.7,0.4-1.5,0.1-1.8-0.5
	c-0.1-0.3-0.2-0.6-0.1-0.9l0.9-4.6l-3.4-3.2c-0.5-0.5-0.6-1.4-0.1-1.9c0.2-0.2,0.5-0.4,0.8-0.4l0,0l4.7-0.6l2-4.3
	c0.3-0.7,1.1-1,1.8-0.6C72.4,51.9,72.6,52.1,72.7,52.4L72.7,52.4z M42,5c-7.8,0-14.1,6.3-14.1,14.1S34.2,33.2,42,33.2
	s14.1-6.3,14.1-14.1c0,0,0,0,0,0C56.1,11.3,49.8,5,42,5C42,5,42,5,42,5z M63.9,42.8c-1.9,0-3.8-0.4-5.4,0.8
	c-2.1,1.6-1.9,4.8-2.9,6.2s-4.2,2.1-5,4.7s1.2,5.1,1.2,7s-2.1,4.4-1.2,7c0.5,1.6,1.9,2.4,3.2,3.3c1.9,1.2,2,1.3,2.6,3.4L10,75.4
	V62.7c0-13.6,11-24.5,24.6-24.6h14.9C54.6,38.1,59.7,39.7,63.9,42.8L63.9,42.8z M71.5,46.6c8.2,0,14.8,6.6,14.8,14.8
	s-6.6,14.8-14.8,14.8s-14.8-6.6-14.8-14.8c0,0,0,0,0,0C56.7,53.2,63.3,46.6,71.5,46.6z"/>
</svg>
