<?xml version="1.0" encoding="utf-8"?>
<!-- Generator: Adobe Illustrator 25.0.0, SVG Export Plug-In . SVG Version: 6.00 Build 0)  -->
<svg version="1.1" id="Layer_1" xmlns="http://www.w3.org/2000/svg" xmlns:xlink="http://www.w3.org/1999/xlink" x="0px" y="0px"
	 viewBox="0 0 96 120" style="enable-background:new 0 0 96 120;" xml:space="preserve">
<style type="text/css">
	.st0{fill-rule:evenodd;clip-rule:evenodd;fill:url(#SVGID_1_);}
</style>
<linearGradient id="SVGID_1_" gradientUnits="userSpaceOnUse" x1="2.677" y1="60.9995" x2="93.323" y2="60.9995">
	<stop  offset="0" style="stop-color:#37939B"/>
	<stop  offset="0.5352" style="stop-color:#04626D"/>
</linearGradient>
<path class="st0" d="M69.7,59.1c13,0,23.6,10.6,23.6,23.6s-10.6,23.6-23.6,23.6S46.1,95.7,46.1,82.7S56.7,59.1,69.7,59.1L69.7,59.1z
	 M49.8,15.7c12,0.5,22.7,5.6,30.6,13.6c-4.1,1.9-8.5,3.2-12.9,4.2c-0.6-1.4-1.2-2.8-1.9-4.2c-1.8-3.5-4.2-6.9-7.2-9.5
	C55.9,17.6,53,16.1,49.8,15.7L49.8,15.7z M82.5,31.6L82.5,31.6c-0.1,0.1-0.2,0.1-0.3,0.2c-4.3,2.1-9,3.6-13.7,4.6
	c2.2,6.5,3.4,13.4,3.7,20.2c3.4,0.3,6.7,1.3,9.6,2.9h11.4C92.9,48.8,88.9,39.1,82.5,31.6L82.5,31.6z M93.3,62.5h-6.8
	c2.4,2,4.4,4.4,6,7.1C92.9,67.3,93.2,64.9,93.3,62.5L93.3,62.5z M56.6,105.5c-0.5-0.3-1.1-0.6-1.6-1c-1.6,0.9-3.4,1.5-5.3,1.8
	C52.1,106.2,54.4,105.9,56.6,105.5L56.6,105.5z M46.2,106.3c-3.2-0.4-6.1-1.9-8.5-4c-3-2.6-5.4-6-7.2-9.5c-0.6-1.2-1.2-2.4-1.7-3.7
	c-4.3,0.9-8.7,2.3-12.7,4.1C23.8,100.9,34.4,105.8,46.2,106.3L46.2,106.3z M13.8,90.8C7.2,83.2,3,73.3,2.7,62.5h20.9
	c0.1,8,1.4,16.1,4,23.6c-4.6,1-9.2,2.5-13.5,4.5C14,90.7,13.9,90.7,13.8,90.8L13.8,90.8L13.8,90.8z M2.7,59.4
	C3,48.8,7,39.1,13.5,31.6l0,0c0.1,0.1,0.2,0.1,0.3,0.2c4.3,2.1,9,3.6,13.7,4.6c-2.5,7.4-3.7,15.3-3.8,23.1L2.7,59.4L2.7,59.4z
	 M15.6,29.2c4.1,1.9,8.5,3.2,12.9,4.2c0.6-1.4,1.2-2.8,1.9-4.2c1.8-3.5,4.2-6.9,7.2-9.5c2.4-2.1,5.3-3.6,8.5-4
	C34.2,16.1,23.5,21.2,15.6,29.2L15.6,29.2z M64.4,34.1c-0.5-1.2-1-2.3-1.6-3.4c-2.7-5.1-7.2-11-13.3-11.9v16.7
	C54.5,35.4,59.5,35,64.4,34.1L64.4,34.1z M49.5,38.6v20.9h8c3.5-1.8,7.5-2.9,11.7-3c-0.4-6.6-1.5-13.3-3.7-19.5
	C60.3,38,54.9,38.5,49.5,38.6L49.5,38.6z M52.9,62.5h-3.4v3.4C50.5,64.7,51.7,63.5,52.9,62.5L52.9,62.5z M49.5,99.5v3.7
	c1-0.1,1.9-0.4,2.8-0.8C51.3,101.5,50.4,100.5,49.5,99.5L49.5,99.5z M31.8,88.4c0.4,1,0.9,1.9,1.4,2.9c2.7,5.1,7.2,11,13.3,11.9
	v-8.3c-1.3-2.4-2.2-5-2.6-7.8C39.8,87.3,35.8,87.7,31.8,88.4L31.8,88.4z M30.6,85.5c4.2-0.8,8.5-1.3,12.9-1.4c0-0.5,0-0.9,0-1.4
	c0-4.4,1.1-8.6,3-12.2v-8H26.6C26.8,70.3,28,78.2,30.6,85.5L30.6,85.5z M46.5,59.4V38.6c-5.4-0.1-10.7-0.6-16-1.6
	c-2.5,7.1-3.7,14.9-3.8,22.5L46.5,59.4L46.5,59.4z M46.5,35.5c-5-0.1-10-0.5-14.9-1.4c0.5-1.2,1-2.3,1.6-3.4
	c2.7-5.1,7.2-11,13.3-11.9V35.5L46.5,35.5z M68.4,96.1V97c0,0.7,0.6,1.3,1.3,1.3c0.7,0,1.3-0.6,1.3-1.3v-0.9c0-0.7-0.6-1.3-1.3-1.3
	S68.4,95.4,68.4,96.1L68.4,96.1z M68.4,74.6v6.2c-0.6,0.4-1,1.1-1,1.9c0,1.3,1,2.3,2.3,2.3c0.4,0,0.7-0.1,1-0.2l3.4,1.9
	c0.6,0.4,1.4,0.1,1.8-0.5c0.4-0.6,0.1-1.4-0.5-1.8L72,82.5c-0.1-0.7-0.4-1.4-1-1.7v-6.2c0-0.7-0.6-1.3-1.3-1.3
	C69,73.3,68.4,73.9,68.4,74.6L68.4,74.6z M78.2,93.1l0.7,0.7c0.5,0.5,1.4,0.5,1.9,0c0.5-0.5,0.5-1.4,0-1.9l-0.7-0.7
	c-0.5-0.5-1.4-0.5-1.9,0C77.7,91.8,77.7,92.6,78.2,93.1L78.2,93.1z M83.1,84H84c0.7,0,1.3-0.6,1.3-1.3s-0.6-1.3-1.3-1.3h-0.9
	c-0.7,0-1.3,0.6-1.3,1.3S82.4,84,83.1,84L83.1,84z M80.1,74.2l0.7-0.7c0.5-0.5,0.5-1.4,0-1.9s-1.4-0.5-1.9,0l-0.7,0.7
	c-0.5,0.5-0.5,1.4,0,1.9C78.8,74.7,79.6,74.7,80.1,74.2L80.1,74.2z M61.2,72.3l-0.7-0.7c-0.5-0.5-1.4-0.5-1.9,0s-0.5,1.4,0,1.9
	l0.7,0.7c0.5,0.5,1.4,0.5,1.9,0C61.7,73.7,61.7,72.8,61.2,72.3L61.2,72.3z M56.3,81.4h-0.9c-0.7,0-1.3,0.6-1.3,1.3s0.6,1.3,1.3,1.3
	h0.9c0.7,0,1.3-0.6,1.3-1.3S57,81.4,56.3,81.4L56.3,81.4z M59.3,91.2l-0.7,0.7c-0.5,0.5-0.5,1.4,0,1.9c0.5,0.5,1.4,0.5,1.9,0
	l0.7-0.7c0.5-0.5,0.5-1.4,0-1.9C60.7,90.7,59.8,90.7,59.3,91.2L59.3,91.2z M71,69.3v-0.9c0-0.7-0.6-1.3-1.3-1.3
	c-0.7,0-1.3,0.6-1.3,1.3v0.9c0,0.7,0.6,1.3,1.3,1.3C70.4,70.6,71,70,71,69.3L71,69.3z M69.7,62.8c-5.5,0-10.5,2.2-14.1,5.8
	c-3.6,3.6-5.8,8.6-5.8,14.1s2.2,10.5,5.8,14.1c3.6,3.6,8.6,5.8,14.1,5.8s10.5-2.2,14.1-5.8c3.6-3.6,5.8-8.6,5.8-14.1
	s-2.2-10.5-5.8-14.1C80.2,65,75.2,62.8,69.7,62.8L69.7,62.8z M81.9,70.5c-3.1-3.1-7.5-5.1-12.2-5.1c-4.8,0-9.1,1.9-12.2,5.1
	s-5.1,7.5-5.1,12.2s1.9,9.1,5.1,12.2c3.1,3.1,7.5,5.1,12.2,5.1s9.1-1.9,12.2-5.1c3.1-3.1,5.1-7.5,5.1-12.2
	C87,77.9,85.1,73.6,81.9,70.5z"/>
</svg>
