<?xml version="1.0" encoding="utf-8"?>
<!-- Generator: Adobe Illustrator 25.0.0, SVG Export Plug-In . SVG Version: 6.00 Build 0)  -->
<svg version="1.1" id="Capa_1" xmlns="http://www.w3.org/2000/svg" xmlns:xlink="http://www.w3.org/1999/xlink" x="0px" y="0px"
	 viewBox="0 0 800 800" style="enable-background:new 0 0 800 800;" xml:space="preserve">
<style type="text/css">
	.st0{fill:url(#SVGID_1_);}
	.st1{fill:url(#SVGID_2_);}
	.st2{fill:url(#SVGID_3_);}
	.st3{fill:url(#SVGID_4_);}
	.st4{fill:url(#SVGID_5_);}
	.st5{fill:url(#SVGID_6_);}
	.st6{fill:url(#SVGID_7_);}
	.st7{fill:url(#SVGID_8_);}
</style>
<g>
	<g>
		<g>
			<linearGradient id="SVGID_1_" gradientUnits="userSpaceOnUse" x1="31.5543" y1="400" x2="636.0838" y2="400">
				<stop  offset="0" style="stop-color:#37939B"/>
				<stop  offset="0.2141" style="stop-color:#046269"/>
			</linearGradient>
			<path class="st0" d="M481.7,176.8h102.5l0,119.5l51.9-80.7v-67.6c0-4.1-1.6-8.1-4.6-11L499,4.6c-2.9-2.9-6.9-4.6-11-4.6H78.3
				C52.5,0,31.6,21,31.6,46.7v706.5c0,25.8,21,46.7,46.8,46.7h511c25.8,0,46.8-21,46.8-46.7V552.7l-51.9,79.5l0,115.9H83.5V52h378.9
				v105.6C462.4,168.2,471,176.8,481.7,176.8z"/>
			<linearGradient id="SVGID_2_" gradientUnits="userSpaceOnUse" x1="426.9127" y1="505.5222" x2="697.5222" y2="505.5222">
				<stop  offset="0" style="stop-color:#37939B"/>
				<stop  offset="0.2141" style="stop-color:#046269"/>
			</linearGradient>
			<path class="st1" d="M694.1,371.7l-21.5-14c-3.5-2.3-8.2-1.3-10.5,2.2L546.5,536.7l-22.2-14.5l115.6-176.9
				c2.3-3.5,1.3-8.2-2.2-10.5l-21.5-14c-3.5-2.3-8.2-1.3-10.5,2.2L432.7,587.9c-0.7,1.1-1.2,2.4-1.2,3.8l-4.5,91.9
				c-0.1,2.7,1.2,5.2,3.4,6.7c2.3,1.5,5.1,1.6,7.5,0.4l82.4-41.1c1.2-0.6,2.2-1.5,3-2.6l173.1-264.9
				C698.6,378.6,697.6,374,694.1,371.7z"/>
			<linearGradient id="SVGID_3_" gradientUnits="userSpaceOnUse" x1="622.9424" y1="284.2111" x2="768.4456" y2="284.2111">
				<stop  offset="0" style="stop-color:#37939B"/>
				<stop  offset="0.2141" style="stop-color:#046269"/>
			</linearGradient>
			<path class="st2" d="M765,263.1l-77.8-50.9c-3.5-2.3-8.2-1.3-10.5,2.2l-52.5,80.3c-2.3,3.5-1.3,8.2,2.2,10.5l77.8,50.9
				c3.5,2.3,8.2,1.3,10.5-2.2l52.5-80.3C769.5,270.1,768.5,265.4,765,263.1z"/>
			<linearGradient id="SVGID_4_" gradientUnits="userSpaceOnUse" x1="140.12" y1="147.5467" x2="326.7867" y2="147.5467">
				<stop  offset="0" style="stop-color:#37939B"/>
				<stop  offset="0.2141" style="stop-color:#046269"/>
			</linearGradient>
			<path class="st3" d="M159.2,166.6h148.6c10.5,0,19-8.5,19-19c0-10.5-8.5-19-19-19H159.2c-10.5,0-19,8.5-19,19
				C140.1,158.1,148.7,166.6,159.2,166.6z"/>
			<linearGradient id="SVGID_5_" gradientUnits="userSpaceOnUse" x1="140.12" y1="242.7848" x2="441.0724" y2="242.7848">
				<stop  offset="0" style="stop-color:#37939B"/>
				<stop  offset="0.2141" style="stop-color:#046269"/>
			</linearGradient>
			<path class="st4" d="M441.1,242.8c0-10.5-8.5-19-19-19H159.2c-10.5,0-19,8.5-19,19s8.5,19,19,19H422
				C432.5,261.8,441.1,253.3,441.1,242.8z"/>
			<linearGradient id="SVGID_6_" gradientUnits="userSpaceOnUse" x1="140.12" y1="338.0229" x2="326.7867" y2="338.0229">
				<stop  offset="0" style="stop-color:#37939B"/>
				<stop  offset="0.2141" style="stop-color:#046269"/>
			</linearGradient>
			<path class="st5" d="M159.2,357.1h148.6c10.5,0,19-8.5,19-19s-8.5-19-19-19H159.2c-10.5,0-19,8.5-19,19S148.7,357.1,159.2,357.1z
				"/>
			<linearGradient id="SVGID_7_" gradientUnits="userSpaceOnUse" x1="140.12" y1="433.261" x2="326.7867" y2="433.261">
				<stop  offset="0" style="stop-color:#37939B"/>
				<stop  offset="0.2141" style="stop-color:#046269"/>
			</linearGradient>
			<path class="st6" d="M159.2,452.3h148.6c10.5,0,19-8.5,19-19c0-10.5-8.5-19-19-19H159.2c-10.5,0-19,8.5-19,19
				C140.1,443.8,148.7,452.3,159.2,452.3z"/>
			<linearGradient id="SVGID_8_" gradientUnits="userSpaceOnUse" x1="156.3674" y1="621.5966" x2="258.5024" y2="621.5966">
				<stop  offset="0" style="stop-color:#37939B"/>
				<stop  offset="0.2141" style="stop-color:#046269"/>
			</linearGradient>
			<path class="st7" d="M167.2,698.5c-3.7,4.8,3,11.6,6.7,6.7c11.8-15.3,21.6-31.8,29.8-49.1c5.1,3.2,11.8,2.6,17.3,0.4
				c7.9-3.1,14.6-9.1,21-14.6c3.8-3.2,8.2-8.5,13.4-9c4-0.4,9.4,2.8,13.4,3.5c10.4,1.8,22.6-1.2,32.6-3.7
				c9.5-2.4,20.7-6.1,26.3-14.7c3.4-5.2-4.9-9.9-8.2-4.8c-4.5,6.9-15.5,9.1-22.9,10.9c-8.7,2.2-18.8,4.3-27.8,2.7
				c-6.8-1.2-12.2-5.2-19.2-2.1c-9.3,4.2-16.4,12.9-24.7,18.8c-3.7,2.6-7.9,5.2-12.5,5.5c-1.9,0.1-3.4-0.5-4.7-1.7
				c1-2.4,2-4.7,3-7.1c9.3-23.1,13.5-46.5,17.8-70.8c2.2-12.3,5.8-31.8-11.9-33c-15.6-1-29.1,21.5-34.1,33.4
				c-4.5,10.6-5,23-4.6,34.3c0.2,7.1,2.8,14.4,4.6,21.7c-15,2.4-28.2,17.6-25.9,32.6c2.3,14.8,20.8,7.1,27.7,1.7
				c7-5.5,9.2-12.4,9.3-19.9c1.4,2.3,2.6,5,3.8,7.6C189.3,665.8,179.2,683,167.2,698.5z M183.9,644.6c-1.4,6.3-9.4,12.5-15.6,13.1
				c-4.9,0.5-1.9-8.3-0.9-10.3c3.1-6.2,10.6-10.2,17-11.9C184.6,638.5,184.6,641.5,183.9,644.6z M191.9,626.1
				c-1.6-7.6-3.9-15.2-4.5-22.1c-1.1-13.3,1.2-27.2,7.8-38.8c4.1-7.3,12.5-18.4,21.4-19.3c7.9-0.8,3.1,18.5,2.4,22.4
				c-2.1,12-3.6,23.9-6.6,35.7c-2.8,11-6.2,21.9-10.4,32.6C199.8,631,196.9,627.5,191.9,626.1z"/>
		</g>
	</g>
</g>
</svg>
