<?xml version="1.0" encoding="utf-8"?>
<!-- Generator: Adobe Illustrator 25.0.0, SVG Export Plug-In . SVG Version: 6.00 Build 0)  -->
<svg version="1.1" id="Layer_1" xmlns="http://www.w3.org/2000/svg" xmlns:xlink="http://www.w3.org/1999/xlink" x="0px" y="0px"
	 viewBox="0 0 122.9 119.1" style="enable-background:new 0 0 122.9 119.1;" xml:space="preserve">
<style type="text/css">
	.st0{fill-rule:evenodd;clip-rule:evenodd;fill:url(#SVGID_1_);}
</style>
<g>
	<linearGradient id="SVGID_1_" gradientUnits="userSpaceOnUse" x1="-39" y1="59.54" x2="83.88" y2="59.54">
		<stop  offset="1.331947e-07" style="stop-color:#37939B"/>
		<stop  offset="0.5816" style="stop-color:#046269"/>
	</linearGradient>
	<path class="st0" d="M55.3,0c29.9,0,54.2,23.7,55.2,53.3c-2.3-1.2-4.7-2.3-7.2-3.1c0.1-0.9,0.3-1.1,0.6-2.2l1.8,0.2
		C102.9,28.3,89,12,70.5,5.8l0,0l-6.8,2V6h-1.2l0,1.7l-2.7,0.7l-0.3,1.2l-3.6-2.9l4.8,0.5c-0.8-1.1-5.9-3-7.8-3H51
		c-1.9,0-8,5.1-10.8,6.6l0.7,3.1l3.5-0.7l0.5,2.6l-2.3-1.4c0,0-0.6,1.1-0.6,1.2c0,1.4,0.2,0.7,0.4,2l-8.8,4v1.2l0.7-0.4l1.8,4h-5.4
		v6c2.4,0.2,1.4,0.6,3,0.6c2.3,0,2.9-1.1,3.2-3.4l2.9-2.8l2.9-1.1l4.9,5.1l-2,0.9c2.1,2.9,2.2-1.2,2.7-2.7l-3.8-4l0.6-0.6l4.5,3.2
		l2.1,5.3c0.5-0.3,1.2-0.4,1.2-1.2c0-1.4-0.2-0.7-0.6-2.3l2.1-0.5l2.1,4.6l4.8-0.5c0,2.4-0.1,5.4-2.4,5.4h-1.2c-3.3,0-4-1.2-6.7-1.8
		l-0.6,2.6l-5.9-2.5v-4.2H39c-2,0-1.6,1.8-4.8,1.8l-1.5,0.3L30,37.2v3c-2,1.3-4.8,4.7-4.8,7.8v7.2c0,0.8,3.8,7.8,6,7.8h2.4
		c2.6,0,2.2-1.2,4.8-1.2H39c1.7,0,1.4,0.5,1.8,1.8h2.4v4.8c0,0.8,3,4.9,3,7.8c0,3.1-1.2,3.5-1.2,6c0,3,3,9,3,13.2h3.6
		c0.5,0,0.9-0.1,1.3-0.2c1.1,5.6,3.3,10.7,6.4,15.1c-1.4,0.1-2.7,0.2-4.1,0.2C24.8,110.5,0,85.8,0,55.3S24.8,0,55.3,0L55.3,0L55.3,0
		z M91.6,56.5c17.3,0,31.3,14,31.3,31.3s-14,31.3-31.3,31.3s-31.3-14-31.3-31.3C60.3,70.5,74.3,56.5,91.6,56.5L91.6,56.5L91.6,56.5z
		 M87.2,74.1h3.8c0.7,0,1.3,0.6,1.3,1.3V88h12.4c0.7,0,1.3,0.6,1.3,1.3v3.8c0,0.7-0.6,1.3-1.3,1.3H85.9v-19
		C85.9,74.6,86.5,74.1,87.2,74.1L87.2,74.1L87.2,74.1z M91.6,63.6c13.4,0,24.2,10.8,24.2,24.2S104.9,112,91.6,112
		s-24.2-10.8-24.2-24.2C67.4,74.4,78.2,63.6,91.6,63.6L91.6,63.6L91.6,63.6z M96.2,48.7L95.6,47l-1.5,1.5
		C94.8,48.6,95.5,48.6,96.2,48.7L96.2,48.7z M85.5,48.9l-0.3-1.5l-1.3,0.9L81,44.4l-4.3,0.1L75,42.6l-1.7,0.5L70,39.3l-0.6,0.4
		l2.1,5.3h2.4v-1.2H75c0.9,2.4,1.8,1,1.8,2.4c0,5-6.2,8.7-10.2,9.6c0.1,0.5,0.1,1,0.3,1.3C72.2,52.9,78.5,50,85.5,48.9L85.5,48.9z
		 M10.6,83.8c-3.3-4.9-5.7-10.5-7.1-16.4l9.7,4.7l0.1,2.9c0,1.1-1.8,3.3-2.4,4.2L10.6,83.8L10.6,83.8L10.6,83.8z"/>
</g>
</svg>
