<?xml version="1.0" encoding="utf-8"?>
<!-- Generator: Adobe Illustrator 25.0.0, SVG Export Plug-In . SVG Version: 6.00 Build 0)  -->
<svg version="1.1" id="Layer_1" xmlns="http://www.w3.org/2000/svg" xmlns:xlink="http://www.w3.org/1999/xlink" x="0px" y="0px"
	 viewBox="0 0 45 45" style="enable-background:new 0 0 45 45;" xml:space="preserve">
<style type="text/css">
	.st0{fill:#06626D;}
	.st1{font-family:'Georgia';}
	.st2{font-size:3.7728px;}
	.st3{fill:#012D2D;}
	.st4{fill:url(#SVGID_1_);}
	.st5{fill:url(#SVGID_2_);}
	.st6{fill:url(#SVGID_3_);}
	.st7{fill:url(#SVGID_4_);}
	.st8{fill:url(#SVGID_5_);}
	.st9{fill:url(#SVGID_6_);}
</style>
<text transform="matrix(1 0 0 1 17.8169 34.8717)" class="st0 st1 st2">TARA TALENT</text>
<g>
	<path class="st3" d="M6.7,23.5c0,0,7-6.8,19.2-11.3c0.7-0.2,1.2-0.5,1.9-0.7C27.7,11.5,14.1,14.8,6.7,23.5z"/>
	<path class="st3" d="M28.3,12.5c0,0-20.1,6-18,19.2L16,19.3l4.8-2.7L28.3,12.5z"/>
	
		<linearGradient id="SVGID_1_" gradientUnits="userSpaceOnUse" x1="25.633" y1="15.5058" x2="21.9067" y2="9.4261" gradientTransform="matrix(0.9993 3.679737e-02 -3.679737e-02 0.9993 -10.3453 -1.8332)">
		<stop  offset="0" style="stop-color:#37939B"/>
		<stop  offset="0.1777" style="stop-color:#298188"/>
		<stop  offset="0.4406" style="stop-color:#186F76"/>
		<stop  offset="0.7114" style="stop-color:#0A656C"/>
		<stop  offset="1" style="stop-color:#056269"/>
	</linearGradient>
	<path class="st4" d="M1.4,11.3l-0.2,5.8l8.9,0.3L10,19.3c0,0-3.4,3.1-3.3,4.2c0,0,6.9-7.6,21.2-12.1L1.4,11.3z"/>
	<linearGradient id="SVGID_2_" gradientUnits="userSpaceOnUse" x1="23.6012" y1="18.3006" x2="22.2098" y2="16.0304">
		<stop  offset="0" style="stop-color:#37939B"/>
		<stop  offset="0.1777" style="stop-color:#298188"/>
		<stop  offset="0.4406" style="stop-color:#186F76"/>
		<stop  offset="0.7114" style="stop-color:#0A656C"/>
		<stop  offset="1" style="stop-color:#056269"/>
	</linearGradient>
	<path class="st5" d="M24.9,14.7l3.3-2.2c0,0-8.1,2.9-12.3,6.7h8.8L24.9,14.7z"/>
	<linearGradient id="SVGID_3_" gradientUnits="userSpaceOnUse" x1="15.9451" y1="30.515" x2="12.1466" y2="24.3174">
		<stop  offset="0" style="stop-color:#37939B"/>
		<stop  offset="0.1777" style="stop-color:#298188"/>
		<stop  offset="0.4406" style="stop-color:#186F76"/>
		<stop  offset="0.7114" style="stop-color:#0A656C"/>
		<stop  offset="1" style="stop-color:#056269"/>
	</linearGradient>
	<path class="st6" d="M16,19.3V35h-4.1C11.9,35,5.8,28.7,16,19.3z"/>
	<linearGradient id="SVGID_4_" gradientUnits="userSpaceOnUse" x1="30.4372" y1="9.41" x2="28.9602" y2="7.0003">
		<stop  offset="0" style="stop-color:#37939B"/>
		<stop  offset="0.1777" style="stop-color:#298188"/>
		<stop  offset="0.4406" style="stop-color:#186F76"/>
		<stop  offset="0.7114" style="stop-color:#0A656C"/>
		<stop  offset="1" style="stop-color:#056269"/>
	</linearGradient>
	<rect x="28" y="6.6" class="st7" width="3.8" height="3.8"/>
	<linearGradient id="SVGID_5_" gradientUnits="userSpaceOnUse" x1="32.9117" y1="14.1257" x2="31.8305" y2="12.3616">
		<stop  offset="0" style="stop-color:#37939B"/>
		<stop  offset="0.1777" style="stop-color:#298188"/>
		<stop  offset="0.4406" style="stop-color:#186F76"/>
		<stop  offset="0.7114" style="stop-color:#0A656C"/>
		<stop  offset="1" style="stop-color:#056269"/>
	</linearGradient>
	<rect x="31.1" y="12" class="st8" width="2.8" height="2.8"/>
	<linearGradient id="SVGID_6_" gradientUnits="userSpaceOnUse" x1="34.3105" y1="10.3611" x2="33.8073" y2="9.54">
		<stop  offset="0" style="stop-color:#37939B"/>
		<stop  offset="0.1777" style="stop-color:#298188"/>
		<stop  offset="0.4406" style="stop-color:#186F76"/>
		<stop  offset="0.7114" style="stop-color:#0A656C"/>
		<stop  offset="1" style="stop-color:#056269"/>
	</linearGradient>
	<rect x="33.5" y="9.4" class="st9" width="1.3" height="1.3"/>
</g>
</svg>
